<?xml version="1.0" standalone="no"?>
<!DOCTYPE svg PUBLIC "-//W3C//DTD SVG 20010904//EN"
 "http://www.w3.org/TR/2001/REC-SVG-20010904/DTD/svg10.dtd">
<svg version="1.0" xmlns="http://www.w3.org/2000/svg"
 width="25.000000pt" height="24.000000pt" viewBox="0 0 25.000000 24.000000"
 preserveAspectRatio="xMidYMid meet">
<metadata>
Created by potrace 1.16, written by Peter Selinger 2001-2019
</metadata>
<g transform="translate(0.000000,24.000000) scale(0.001157,-0.001111)"
fill="#000000" stroke="none">
<path d="M16875 13373 c-18 -17 -19 -29 -5 -38 6 -4 8 -11 4 -16 -3 -5 0 -17
8 -26 8 -10 8 -14 1 -10 -6 4 -14 3 -17 -1 -7 -11 36 -35 66 -36 13 -1 28 -5
34 -9 6 -3 14 -3 18 1 28 28 163 -16 159 -52 0 -11 4 -15 13 -12 8 3 14 1 14
-4 0 -5 6 -7 14 -4 8 3 23 -3 33 -13 17 -17 59 -21 49 -4 -3 4 -2 21 3 37 5
20 14 29 30 30 12 1 28 7 34 14 9 10 9 11 -2 5 -9 -5 -12 -4 -7 3 8 14 36 16
36 4 0 -5 7 -9 15 -9 8 0 12 4 9 9 -3 4 3 8 14 8 10 0 24 -10 31 -22 l11 -23
-6 22 c-4 18 0 24 20 29 14 3 29 3 34 0 6 -3 18 6 27 21 l18 27 9 -24 c13 -34
28 -9 28 47 0 32 -5 45 -20 53 -13 7 -129 10 -340 9 -269 -1 -323 -3 -335 -16z"/>
<path d="M13572 12264 c-2 -409 -4 -473 -17 -478 -12 -4 -15 -27 -15 -120 0
-98 2 -115 15 -110 13 5 15 -8 15 -84 0 -49 -3 -105 -7 -123 -7 -28 -9 -21
-14 46 -3 44 -7 -977 -8 -2270 -2 -1292 -4 -2762 -5 -3265 l-1 -915 30 1 c17
1 234 2 484 3 l454 1 -6 3448 c-8 3788 -10 4306 -14 4124 -2 -70 -8 -120 -13
-117 -5 3 -8 -4 -7 -15 1 -11 5 -20 9 -20 4 0 8 -9 8 -21 0 -16 -4 -20 -17
-15 -16 5 -16 5 -2 -6 14 -12 14 -15 -4 -33 -20 -20 -20 -20 -9 1 7 14 8 24 1
31 -6 6 -6 19 -1 34 5 13 6 33 1 44 -4 11 -8 15 -8 10 -1 -7 -28 -10 -68 -9
-38 1 -201 3 -363 4 -162 1 -317 5 -345 9 l-50 6 3 70 c4 74 5 78 27 81 11 2
12 -3 5 -22 -12 -31 -2 -84 16 -84 8 0 14 9 14 20 0 25 16 26 32 1 11 -18 13
-18 37 -3 14 9 29 20 32 25 4 5 9 5 13 -1 3 -6 49 -9 113 -7 144 3 139 3 126
16 -8 8 -56 11 -139 11 -108 -1 -130 1 -150 17 l-23 18 22 11 c12 6 45 13 72
16 43 5 77 11 95 16 3 1 -4 5 -15 10 -11 4 -37 6 -58 3 -25 -4 -51 0 -76 12
-35 16 -41 16 -69 1 -39 -20 -61 -20 -84 1 -17 15 -18 13 -20 -53 -2 -57 -3
-49 -8 41 -3 61 -7 -102 -8 -361z m839 74 c6 -11 4 -21 -6 -31 -8 -8 -11 -17
-8 -21 4 -3 -10 -6 -29 -6 -20 0 -41 7 -48 15 -14 16 -75 21 -84 6 -11 -18
-86 11 -86 33 0 20 28 24 148 23 87 -1 105 -4 113 -19z m66 -144 c0 -7 -4 -11
-9 -8 -4 3 -8 -2 -8 -11 0 -9 3 -14 8 -11 4 2 8 -79 8 -180 l1 -184 -36 -1
c-64 -1 -370 -1 -578 0 -131 1 -203 5 -203 12 0 6 5 7 10 4 6 -4 9 -1 8 7 -2
8 6 13 20 12 12 -1 22 3 22 8 0 6 -6 8 -13 5 -7 -3 -18 3 -24 12 -9 14 -8 18
3 18 7 0 11 -4 7 -9 -3 -5 8 -8 23 -6 19 2 28 8 26 17 -3 12 -1 12 13 1 14
-12 16 -12 14 1 -1 7 1 26 5 40 8 29 65 59 113 59 45 0 145 20 175 36 31 16
96 23 226 24 83 0 93 2 90 18 -2 10 3 17 12 17 9 0 15 -9 14 -22 0 -12 3 -20
8 -17 4 3 8 13 8 22 0 9 5 24 10 32 9 13 11 13 19 0 7 -9 6 -20 -2 -30 -9 -12
-9 -13 3 -3 18 16 20 76 3 61 -7 -6 -13 -7 -13 -2 -1 5 -7 -2 -15 -16 -8 -14
-14 -20 -15 -13 0 18 46 64 55 55 5 -4 5 -1 1 6 -4 7 -12 9 -18 6 -8 -5 -9 -1
-4 12 5 10 9 24 9 30 1 15 24 13 24 -2z"/>
<path d="M17178 12635 c-20 -12 -33 -12 -58 -4 -24 9 -42 9 -71 0 -27 -8 -45
-9 -58 -1 -31 16 -75 12 -99 -10 -12 -12 -22 -26 -22 -32 0 -7 -5 -6 -15 2
-13 11 -15 0 -16 -86 -1 -55 -3 -151 -5 -214 -6 -291 -14 -2441 -16 -4775 l-2
-2560 484 -3 c266 -1 487 1 491 5 4 5 4 672 -1 1483 -5 811 -10 2249 -11 3195
0 946 -5 1730 -10 1742 -5 15 -5 23 2 23 11 0 3 376 -9 394 -9 15 -9 126 1
126 4 0 7 16 7 36 0 19 -3 33 -8 30 -4 -2 -7 29 -6 70 0 47 -3 74 -10 74 -6 0
-4 5 4 10 13 9 13 10 0 10 -13 0 -13 1 0 10 13 9 13 10 0 10 -13 0 -13 1 0 10
13 9 13 10 0 10 -12 0 -12 2 -2 9 8 4 14 12 14 16 0 4 -6 12 -14 16 -10 7 -10
9 2 9 13 0 13 1 0 10 -8 5 -10 10 -4 10 11 0 12 55 1 66 -3 3 -15 -9 -26 -27
-12 -19 -21 -27 -21 -19 0 8 -3 24 -5 35 -8 33 8 49 35 35 15 -8 20 -8 16 -1
-4 6 -3 11 2 11 12 0 9 56 -3 67 -4 4 -6 1 -3 -8 5 -12 1 -15 -18 -11 -29 5
-43 29 -37 57 11 42 8 136 -4 157 -12 22 -12 22 -14 -12 -1 -19 -1 -42 0 -51
2 -23 -27 -32 -33 -11 -3 9 -4 26 -2 37 2 11 -2 26 -8 34 -9 11 -12 6 -16 -24
-6 -47 -30 -60 -30 -16 0 25 -6 33 -36 47 -29 14 -40 15 -55 6 -25 -16 -48
-15 -83 3 -26 14 -33 14 -72 -1 -39 -15 -44 -15 -65 0 -29 20 -56 20 -91 1z"/>
<path d="M8678 10648 c-3 -73 -4 -397 -4 -721 1 -323 -2 -587 -6 -587 -4 0 -3
-12 2 -26 7 -17 7 -38 0 -62 -6 -24 -10 -779 -10 -2166 0 -1539 -3 -2133 -11
-2142 -6 -8 -15 -11 -20 -8 -5 3 -55 5 -111 4 -57 -1 -143 -1 -191 -1 -68 1
-86 -2 -81 -12 6 -9 4 -9 -7 -1 -8 6 -43 12 -79 13 -36 1 -73 4 -82 7 -17 5
-18 37 -18 482 -1 1002 -12 2197 -21 2206 -5 6 -10 145 -10 310 -1 166 -5 283
-8 261 -5 -34 -10 -39 -31 -39 -14 0 -30 3 -35 6 -10 5 -99 8 -270 8 -132 0
-159 0 -177 6 -9 3 -19 0 -23 -6 -4 -6 -13 -7 -23 -2 -9 5 -43 7 -75 6 l-58
-3 5 42 c3 23 5 60 6 82 1 54 18 26 24 -41 2 -27 5 -52 5 -56 1 -5 5 -8 10 -8
5 0 13 50 16 110 8 121 25 149 25 43 1 -149 27 -214 37 -91 2 29 6 55 9 57 11
11 24 -26 24 -66 0 -23 4 -44 9 -47 10 -7 21 27 21 66 0 15 4 29 9 32 12 8 21
-18 21 -60 0 -24 5 -34 15 -34 11 0 15 11 15 43 0 61 17 82 25 31 13 -81 16
-89 26 -73 5 7 9 34 9 59 0 25 5 52 10 60 5 8 10 13 10 10 1 -3 3 -27 6 -55
11 -109 33 -96 38 22 1 44 7 86 11 93 5 9 4 11 -3 6 -7 -4 -12 -2 -12 3 0 6 4
11 8 11 19 0 29 -24 25 -62 -2 -23 -2 -52 2 -66 12 -48 24 -7 27 91 3 88 1 97
-15 97 -33 0 -50 29 -53 89 -3 76 -6 77 -13 6 -6 -59 -7 -60 -51 -83 l-45 -22
-3 67 c-2 38 -8 73 -13 78 -7 7 -9 -5 -8 -36 3 -46 -14 -79 -41 -79 -6 0 -8
-4 -5 -10 4 -6 -6 -10 -23 -10 -22 0 -31 6 -35 21 -5 17 -11 20 -28 16 -34 -9
-49 10 -50 62 -2 39 -3 36 -9 -21 -7 -75 -11 -83 -36 -74 -14 5 -16 17 -11 72
3 44 1 64 -6 61 -7 -2 -10 -24 -8 -54 3 -55 -10 -73 -34 -49 -10 9 -15 34 -15
67 0 29 -3 49 -7 45 -10 -9 -10 -12 -12 -86 -1 -45 -5 -60 -15 -60 -8 0 -16 5
-18 11 -3 9 -10 9 -26 0 -20 -11 -24 -9 -35 19 -8 17 -16 27 -20 23 -4 -3 -7
-86 -7 -183 0 -97 -4 -180 -9 -186 -5 -5 -12 -707 -15 -1604 -7 -1462 -8
-1596 -23 -1608 -14 -10 -139 -16 -303 -13 -8 0 -451 1 -985 2 -533 0 -977 3
-986 5 -15 4 -17 143 -23 1537 -6 1280 -13 1747 -24 1694 -1 -4 -10 -3 -20 2
-11 6 -24 6 -35 -1 -13 -7 -22 -6 -33 2 -11 10 -17 10 -29 0 -12 -10 -18 -10
-29 -1 -11 9 -20 9 -35 2 -11 -6 -22 -8 -24 -4 -3 5 -54 7 -114 5 -59 -1 -126
-3 -148 -3 -22 -1 -47 2 -56 6 -10 3 -20 2 -24 -4 -4 -8 -12 -8 -26 -1 -13 7
-25 7 -38 0 -11 -5 -22 -6 -25 -2 -5 9 -89 7 -104 -2 -4 -2 -14 -1 -22 4 -8 5
-21 5 -30 0 -9 -5 -22 -5 -30 0 -8 5 -22 4 -32 -1 -21 -11 -62 6 -53 22 4 5 1
9 -5 9 -7 0 -10 -6 -7 -14 3 -7 1 -18 -4 -23 -6 -6 -10 -94 -10 -216 1 -120
-3 -208 -9 -212 -6 -3 -10 -484 -11 -1273 -1 -1518 -1 -1498 -15 -1512 -7 -7
-206 -11 -625 -13 -681 -2 -631 3 -749 -74 -55 -35 -150 -128 -150 -147 0 -2
-14 -27 -30 -53 -30 -49 -30 -49 -31 -202 0 -128 3 -158 18 -187 57 -108 68
-124 87 -130 18 -6 3057 -8 8944 -4 865 0 1571 4 1568 8 -2 4 5 9 17 9 17 2
19 0 7 -7 -11 -7 -1 -10 33 -10 27 0 46 4 43 8 -2 4 5 9 17 9 17 2 19 0 7 -7
-12 -8 -10 -10 8 -10 13 0 21 4 18 8 -3 5 1 9 9 9 8 0 12 -4 9 -9 -3 -4 5 -8
18 -8 18 0 20 2 8 10 -9 6 -10 10 -3 10 6 0 14 -4 17 -9 3 -5 17 -8 32 -9 18
0 22 3 13 9 -10 6 -7 8 8 6 12 0 19 -5 17 -9 -3 -4 5 -8 18 -8 18 0 20 2 8 10
-12 7 -10 9 7 7 12 0 19 -5 17 -9 -3 -4 8 -8 25 -8 16 0 32 6 34 13 4 9 6 9 6
0 1 -15 37 -18 45 -4 3 5 17 9 32 9 18 0 22 -3 13 -9 -10 -6 -8 -9 9 -9 13 0
21 4 18 8 -3 5 1 9 9 9 8 0 12 -4 9 -9 -8 -12 40 -10 53 3 8 8 13 8 17 0 4 -6
12 -11 17 -11 6 0 8 4 5 8 -3 5 1 9 9 9 8 0 12 -3 10 -7 -2 -3 7 -6 20 -6 13
0 21 4 19 8 -6 10 26 5 45 -6 9 -6 12 -5 8 1 -4 6 0 13 8 17 8 3 18 -2 23 -10
7 -12 46 -14 60 -3 9 7 70 3 81 -5 11 -8 13 -8 7 2 -5 9 4 12 34 12 23 0 39
-4 36 -8 -3 -5 1 -9 9 -9 8 0 11 5 8 10 -4 6 -1 7 8 1 19 -11 88 -14 95 -3 3
5 15 9 26 9 12 0 18 3 15 7 -4 3 -24 6 -44 5 -20 -1 -41 4 -45 11 -6 9 -8 9
-8 0 0 -7 -9 -13 -20 -13 -13 0 -20 6 -19 18 0 10 3 12 6 5 3 -9 10 -10 23 -3
13 7 21 7 26 -1 4 -8 9 -7 15 2 7 11 9 11 9 1 0 -9 5 -10 19 -3 10 6 20 8 23
6 11 -12 4 32 -8 45 -11 13 -13 62 -4 80 9 16 4 60 -7 64 -11 5 -19 -8 -10
-17 6 -7 -42 -45 -71 -57 -28 -11 -35 -11 -42 0 -6 10 -12 11 -22 4 -7 -6 -34
-11 -59 -12 -42 -1 -48 1 -58 26 -5 15 -11 52 -12 82 -1 30 -8 66 -16 79 -8
13 -11 21 -6 18 5 -3 9 5 9 19 0 13 -4 24 -9 24 -4 0 -5 6 -1 13 6 9 5 9 -8 0
-8 -7 -17 -11 -20 -8 -9 9 -25 -18 -37 -59 -8 -30 -7 -43 2 -55 10 -12 9 -13
-2 -6 -10 6 -13 4 -9 -7 4 -8 -2 -20 -13 -27 -16 -9 -23 -9 -35 4 -9 9 -14 24
-11 34 2 10 -4 29 -14 42 -13 17 -15 27 -7 37 8 10 7 11 -8 5 -17 -6 -17 -5
-5 10 8 10 11 20 7 24 -3 3 -6 1 -6 -5 0 -6 -8 -9 -17 -6 -15 5 -16 4 -3 -5
13 -9 13 -11 -2 -11 -10 0 -18 -4 -18 -10 0 -5 6 -8 13 -6 6 1 9 1 4 -1 -4 -3
-5 -8 -2 -13 4 -6 -18 -7 -32 -1 -1 1 2 15 7 31 5 19 5 28 -1 25 -5 -4 -9 -13
-9 -21 0 -8 -8 -14 -17 -14 -16 0 -16 2 -3 11 13 9 13 10 0 6 -10 -2 -14 -13
-12 -29 4 -34 -14 -44 -28 -16 -11 22 -10 22 4 4 14 -17 16 -18 16 -3 0 9 -5
17 -11 17 -5 0 -7 6 -3 13 6 9 5 9 -8 0 -8 -7 -18 -9 -22 -5 -4 4 -6 1 -4 -7
3 -15 -29 -24 -38 -10 -3 5 -14 4 -26 -2 -17 -9 -23 -8 -30 6 -9 15 -11 15
-25 -4 -15 -22 -33 -28 -33 -10 0 5 5 7 12 3 7 -4 8 -3 4 5 -4 6 -11 9 -16 6
-4 -3 -10 1 -13 7 -2 7 -10 -4 -17 -24 -9 -24 -19 -36 -31 -35 -10 1 -15 7
-12 17 2 8 -3 3 -12 -12 -18 -33 -18 -33 -51 -12 -20 13 -24 14 -22 3 2 -8 -4
-14 -12 -14 -8 0 -16 6 -16 13 -3 23 -4 24 -17 13 -8 -6 -18 -7 -22 -3 -5 4
-5 2 -2 -4 8 -13 -19 -39 -26 -27 -10 17 -77 7 -91 -12 -12 -16 -16 -17 -30
-6 -21 17 -20 31 1 47 17 12 17 14 -4 42 -26 35 -35 101 -16 121 12 11 11 16
-3 32 -10 11 -19 17 -22 14 -3 -2 -11 3 -19 13 -12 16 -13 16 -7 -3 5 -19 5
-19 -9 -2 -15 18 -15 17 -22 -3 -4 -12 -4 -24 -1 -27 3 -4 6 2 6 12 0 13 3 15
13 8 6 -6 20 -9 30 -8 10 2 14 -1 11 -7 -5 -7 -2 -8 7 -3 12 8 12 6 0 -8 -14
-18 -22 -22 -20 -9 4 21 -3 24 -16 6 -15 -19 -15 -19 -8 1 6 20 6 20 -15 1
-20 -17 -27 -15 -23 6 2 13 -17 9 -21 -4 -3 -7 -7 -5 -11 6 -4 9 -3 15 1 12 4
-2 14 0 22 5 12 8 11 9 -5 7 -12 -2 -19 2 -17 10 1 8 -2 11 -7 8 -5 -3 -7 -19
-6 -36 1 -16 -1 -27 -6 -24 -5 3 -9 -1 -9 -8 0 -11 -2 -10 -9 0 -6 11 -10 10
-15 -5 -7 -17 -9 -16 -27 6 -10 13 -19 18 -19 12 0 -15 -22 -10 -37 9 -11 13
-12 12 -6 -5 6 -17 5 -18 -9 -7 -14 11 -15 8 -12 -25 3 -37 1 -34 -18 16 -6
18 -11 21 -21 12 -10 -8 -17 -7 -27 2 -9 8 -11 9 -6 0 3 -6 2 -14 -3 -17 -5
-4 -13 3 -16 15 -4 11 -9 18 -12 16 -2 -3 1 -15 7 -27 9 -17 14 -19 26 -9 11
9 14 8 14 -4 0 -20 -16 -31 -25 -17 -4 6 -11 8 -16 4 -5 -3 -9 -2 -8 3 3 20
-2 34 -11 28 -6 -3 -7 1 -4 10 4 10 2 15 -6 13 -8 -2 -18 15 -26 42 -9 34 -12
39 -14 20 -1 -14 -4 -34 -7 -45 -2 -11 -5 -34 -6 -52 -1 -17 -5 -29 -9 -26 -5
2 -8 -1 -8 -6 0 -6 -5 -11 -11 -11 -5 0 -8 4 -5 9 3 5 0 14 -7 20 -17 14 -20
-17 -3 -39 9 -13 9 -13 -5 -3 -9 7 -19 10 -22 7 -7 -7 -15 24 -19 71 -2 19
-11 34 -26 41 -13 6 -29 18 -35 25 -10 11 -9 11 4 1 12 -9 16 -9 16 2 0 11
-23 15 -34 6 -3 -2 -15 -6 -29 -9 -4 0 0 -9 7 -18 12 -16 12 -17 -2 -6 -9 7
-19 10 -23 6 -13 -13 -37 -11 -43 4 -5 12 -7 12 -14 1 -5 -7 -13 -14 -19 -14
-5 -1 -11 -2 -12 -4 -2 -1 -11 -3 -21 -5 -15 -3 -16 -1 -6 11 10 12 6 17 -11
16 -3 0 -7 9 -7 20 -2 20 -1 20 13 2 9 -11 12 -12 8 -4 -12 25 -46 60 -54 55
-12 -8 -33 23 -27 39 4 11 1 13 -11 9 -14 -5 -14 -3 3 18 11 13 16 21 11 16
-5 -4 -17 0 -26 8 -12 11 -17 12 -18 3 -1 -7 -4 -24 -6 -38 -2 -14 -5 -28 -5
-32 -1 -4 -10 -5 -20 -3 -17 3 -18 0 -11 -18 4 -12 12 -21 17 -20 5 1 9 -10
10 -25 1 -22 0 -23 -6 -8 -6 16 -8 17 -13 4 -4 -9 -2 -20 4 -26 6 -6 6 -12 -1
-17 -6 -3 -11 -3 -10 2 3 20 -2 27 -11 13 -7 -11 -10 -11 -10 -2 0 7 -5 10
-10 7 -6 -4 -7 -11 -4 -17 4 -7 2 -8 -5 -4 -6 4 -9 11 -6 16 3 4 2 10 -2 13
-5 2 -2 2 5 1 7 -2 15 3 19 12 5 13 7 13 14 2 7 -10 9 -10 9 0 0 6 0 15 0 19
0 4 -6 8 -15 9 -8 1 -15 -4 -15 -12 0 -8 -8 -14 -17 -13 -11 0 -13 3 -5 6 6 2
12 9 12 14 0 6 -4 8 -9 5 -11 -7 -8 21 4 31 4 4 5 2 0 -6 -6 -10 -4 -12 5 -6
8 5 11 4 7 -2 -3 -5 0 -10 8 -10 13 0 12 3 -1 18 -13 15 -21 16 -36 8 -16 -9
-19 -8 -12 3 12 19 13 58 1 51 -6 -4 -8 0 -4 10 3 9 1 19 -5 23 -7 4 -8 3 -4
-4 4 -7 1 -12 -8 -12 -9 0 -16 -7 -16 -16 0 -13 -3 -14 -13 -5 -11 8 -19 5
-35 -12 -12 -13 -19 -27 -15 -32 5 -4 3 -5 -4 -1 -13 7 -9 44 7 60 5 5 10 14
10 19 0 5 -9 -1 -20 -14 -10 -13 -19 -20 -20 -15 0 5 -8 2 -17 -5 -14 -12 -16
-12 -9 0 6 9 5 12 -5 9 -8 -3 -22 1 -31 10 -16 14 -18 13 -19 -1 -3 -32 -4
-36 -19 -49 -12 -11 -12 -11 -1 5 12 15 9 21 -11 18 -4 0 -3 10 2 23 5 13 7
26 5 28 -3 2 91 5 207 7 184 2 214 5 225 19 12 16 13 16 7 0 -4 -11 -1 -16 11
-14 8 1 15 4 14 7 -1 2 3 14 9 25 l12 22 437 -3 c241 -2 453 -5 471 -8 20 -3
32 0 32 7 1 87 -1 3878 -2 3949 -1 54 -5 100 -10 103 -5 3 -4 12 2 19 7 8 8
20 4 27 -5 7 -10 49 -11 93 -2 44 -5 86 -8 93 -2 6 -1 12 4 12 9 0 8 121 -2
137 -4 5 -3 13 1 17 11 12 9 210 -3 218 -6 5 -4 8 5 8 13 0 13 1 0 10 -8 5
-10 10 -5 10 6 0 11 12 10 28 0 15 4 30 10 34 6 5 4 8 -5 8 -13 0 -13 1 0 10
13 9 13 10 0 10 -13 0 -13 1 0 10 13 9 13 10 0 10 -13 0 -13 1 0 10 10 6 11
10 3 10 -9 0 -10 7 -3 24 5 13 6 27 2 30 -9 10 -16 49 -21 127 -1 20 -28 33
-28 13 0 -7 5 -10 10 -7 6 3 7 1 3 -6 -4 -6 -18 -9 -34 -5 -30 7 -180 11 -472
13 -236 1 -226 1 -247 1 -10 0 -49 -1 -86 0 -45 0 -69 -4 -72 -13 -2 -6 -6
-448 -9 -982 -3 -533 -5 -971 -6 -973 0 -2 -5 0 -10 3 -7 4 -9 -503 -8 -1527
2 -1220 6 -1532 16 -1531 6 2 12 -2 12 -7 0 -6 -6 -10 -12 -9 -31 4 -49 -2
-42 -13 5 -7 3 -8 -7 -3 -7 5 -34 8 -59 6 -56 -2 -57 -2 -102 1 -22 2 -34 -1
-30 -7 3 -6 0 -6 -9 1 -8 6 -62 9 -136 8 -109 -2 -148 5 -110 19 6 3 -72 5
-175 6 -143 1 -187 -1 -191 -11 -4 -10 -6 -10 -6 0 -1 9 -26 12 -92 12 -49 0
-88 -4 -85 -8 3 -5 -1 -9 -9 -9 -8 0 -12 4 -9 9 3 4 0 8 -5 8 -6 0 -11 -6 -11
-12 0 -9 -4 -8 -10 2 -9 13 -10 13 -10 0 0 -12 -2 -12 -9 -1 -6 9 -10 10 -16
2 -5 -9 -10 -9 -21 0 -11 9 -14 8 -14 -2 0 -12 -2 -12 -9 0 -6 9 -10 10 -16 2
-5 -9 -10 -9 -21 0 -11 9 -14 8 -14 -2 0 -12 -2 -12 -9 0 -7 11 -9 11 -14 0
-4 -11 -6 -11 -6 -1 -1 8 -6 10 -13 5 -18 -10 -58 -12 -52 -1 3 4 1 8 -5 8 -5
0 -12 -6 -14 -12 -4 -10 -6 -10 -6 0 -1 6 -6 12 -12 12 -5 0 -7 -6 -3 -12 6
-10 4 -10 -7 -1 -16 16 -33 17 -23 1 5 -7 3 -8 -7 -2 -19 12 -33 12 -41 -1 -5
-6 -8 -4 -8 5 0 13 -1 13 -10 0 -6 -10 -10 -11 -10 -2 0 6 -5 12 -11 12 -5 0
-7 -6 -3 -12 5 -8 0 -7 -11 2 -17 14 -18 13 -12 -5 7 -19 6 -19 -7 -2 -10 14
-15 15 -19 5 -4 -10 -6 -10 -6 1 -1 11 -4 11 -18 0 -11 -9 -14 -10 -10 -2 6 9
-2 12 -27 11 -19 -1 -33 -4 -31 -8 2 -3 -7 -6 -20 -6 -13 0 -21 4 -19 8 8 13
-11 9 -25 -4 -11 -10 -13 -10 -7 0 5 8 -3 12 -28 12 -19 0 -37 -6 -39 -12 -4
-10 -6 -10 -6 0 -1 8 -6 10 -13 5 -17 -10 -39 -13 -33 -4 2 4 -2 8 -10 8 -8 0
-12 -3 -10 -7 2 -3 -5 -6 -15 -6 -10 0 -16 4 -14 8 6 10 -26 5 -45 -6 -9 -6
-12 -5 -8 1 4 6 -11 10 -38 10 -30 0 -42 -4 -38 -11 4 -6 0 -6 -9 1 -8 7 -18
10 -22 6 -10 -10 -37 -13 -31 -3 6 10 -56 7 -74 -4 -10 -6 -12 -5 -7 2 4 7 3
12 -3 12 -5 0 -13 -5 -16 -10 -5 -8 -11 -7 -21 1 -11 9 -14 8 -14 -2 0 -11 -2
-11 -10 1 -9 13 -10 13 -10 0 0 -13 -1 -13 -10 0 -9 13 -10 13 -10 0 0 -10 -3
-11 -8 -4 -4 6 -18 10 -32 9 -51 -6 -57 9 -63 160 -4 77 -9 973 -12 1990 -3
1018 -8 2080 -11 2360 -6 460 -13 1050 -14 1115 l0 25 -19 -24 c-20 -26 -41
-21 -41 10 0 27 -19 24 -30 -6 -12 -32 -26 -32 -34 0 -7 29 -26 24 -26 -6 0
-25 -26 -25 -33 1 -3 11 -10 20 -15 20 -5 0 -12 -9 -15 -20 -3 -11 -10 -20
-15 -20 -6 0 -14 9 -17 20 -3 11 -10 20 -15 20 -4 0 -10 -9 -13 -20 -3 -11
-10 -20 -17 -20 -7 0 -14 9 -17 20 -3 11 -9 20 -13 20 -4 0 -10 -9 -13 -20 -3
-11 -10 -20 -17 -20 -7 0 -14 9 -17 20 -3 11 -9 20 -13 20 -4 0 -10 -9 -13
-20 -3 -11 -10 -20 -17 -20 -7 0 -14 9 -17 20 -7 26 -20 26 -28 -1 -9 -27 -39
-21 -43 9 -2 12 -7 20 -12 17 -5 -3 -7 -12 -4 -19 3 -8 1 -17 -4 -20 -17 -10
-41 4 -45 27 -3 20 -4 20 -15 -7 -10 -23 -15 -26 -27 -16 -8 7 -15 19 -15 26
0 8 -4 14 -10 14 -5 0 -10 -9 -10 -19 0 -31 -19 -35 -30 -7 -12 32 -28 34 -32
4 -3 -25 -32 -32 -34 -8 -1 8 -2 22 -3 30 -2 20 -26 -5 -26 -28 0 -25 -28 -21
-35 6 -6 28 -25 30 -25 2 -1 -31 -14 -35 -24 -6 -11 26 -25 34 -35 17 -4 -5 0
-12 6 -14 10 -4 10 -6 0 -6 -7 -1 -10 -5 -7 -11 3 -5 1 -10 -4 -10 -6 0 -11 3
-12 8 0 4 -2 56 -3 115 -2 59 -6 110 -9 113 -3 3 -7 -54 -9 -128z"/>
<path d="M12060 10567 c0 -13 -3 -26 -6 -30 -10 -10 -35 5 -44 27 -9 21 -9 21
-9 -1 -1 -13 -5 -23 -11 -23 -5 0 -10 -7 -10 -15 0 -8 5 -15 11 -15 7 0 9 -13
5 -37 -10 -54 -9 -313 1 -408 l8 -80 9 75 c5 41 10 104 12 139 5 86 14 91 14
8 0 -38 4 -67 10 -67 6 0 10 -33 10 -80 0 -142 18 -85 25 80 4 88 11 160 16
160 5 0 10 -24 10 -52 1 -29 3 -66 4 -83 1 -16 2 -63 3 -102 2 -93 22 -97 22
-5 1 69 21 121 34 86 3 -8 6 -45 6 -80 0 -36 4 -64 10 -64 6 0 10 26 10 59 0
33 5 63 10 66 6 4 8 31 4 69 -5 52 -3 64 10 69 10 4 16 1 16 -9 0 -9 -5 -12
-12 -8 -10 6 -10 4 -2 -7 7 -8 12 -59 13 -123 1 -120 14 -159 25 -74 4 29 9
68 13 86 9 53 23 17 23 -60 0 -65 12 -94 24 -62 3 9 6 35 6 59 0 24 3 50 6 59
12 32 24 3 24 -59 0 -65 13 -93 24 -52 3 12 6 36 6 53 0 46 11 94 21 94 5 0 9
-30 9 -67 0 -69 13 -113 25 -83 3 8 9 49 13 90 10 84 17 78 28 -25 4 -38 9
-59 11 -45 2 14 8 43 13 65 5 22 10 77 11 122 3 144 16 110 24 -62 4 -97 11
-163 16 -158 5 5 11 92 14 193 l6 185 -22 -22 c-22 -21 -24 -21 -51 -5 -31 18
-36 32 -13 32 9 0 18 7 22 15 5 14 8 14 25 -2 19 -17 20 -17 34 2 13 17 14 13
14 -38 0 -31 4 -57 8 -57 5 0 9 -37 11 -82 2 -83 5 -97 18 -84 6 6 15 122 14
176 -1 8 -1 41 -1 72 -1 61 -11 78 -35 58 -12 -10 -18 -10 -31 1 -14 11 -18
11 -29 -4 -15 -21 -25 -22 -25 -3 0 24 -22 30 -37 10 -13 -18 -15 -18 -24 -1
-15 25 -36 21 -44 -10 -7 -27 -8 -27 -15 -7 -12 31 -31 40 -42 20 -13 -23 -38
-3 -38 31 0 20 4 23 33 22 17 -1 39 2 48 5 10 4 20 3 24 -3 4 -8 12 -8 27 0
14 8 23 8 31 0 8 -8 16 -6 30 7 18 16 20 16 33 -3 13 -17 16 -18 24 -5 20 32
2 62 -25 40 -10 -8 -19 -8 -34 -1 -11 6 -26 8 -34 5 -9 -3 -21 4 -30 16 l-15
22 -7 -22 c-9 -28 -39 -22 -44 10 l-4 25 -6 -25 c-9 -33 -45 -34 -49 -2 -4 27
-22 19 -22 -9 0 -29 -32 -20 -41 11 -6 23 -7 24 -14 5 -4 -11 -9 -26 -11 -32
-6 -21 -34 -2 -34 23 0 33 -18 30 -22 -3 -2 -17 -9 -28 -18 -28 -9 0 -16 11
-18 28 -2 15 -7 27 -12 27 -5 0 -10 -12 -12 -27 -2 -17 -9 -28 -18 -28 -9 0
-16 11 -18 28 -4 33 -22 36 -22 4z"/>
<path d="M12733 10439 c-6 -6 -9 -18 -6 -25 3 -8 -1 -14 -11 -14 -9 0 -16 8
-16 20 0 25 -35 27 -44 3 -7 -18 9 -33 37 -33 10 0 17 -8 17 -20 0 -13 -7 -20
-19 -20 -30 0 -43 -23 -31 -54 5 -15 10 -54 10 -86 0 -32 5 -62 10 -65 11 -7
12 -2 15 70 5 125 6 131 14 110 8 -19 9 -18 12 5 3 14 5 -17 7 -69 2 -98 9
-124 23 -98 12 20 13 267 2 278 -5 5 -14 4 -20 -2z"/>
<path d="M7245 9130 c-4 -7 -19 -9 -36 -5 -18 4 -29 3 -29 -4 0 -7 -10 -9 -25
-5 -20 5 -25 2 -25 -12 0 -15 2 -16 9 -5 5 8 14 10 21 6 7 -4 29 -8 49 -9 l36
-1 2 -50 c1 -27 2 -83 2 -124 1 -116 11 -78 13 55 l3 119 145 0 145 0 1 -55
c1 -98 4 -130 13 -130 5 0 7 42 5 94 l-3 95 32 3 c18 2 31 8 29 13 -1 6 -60
10 -151 10 -82 0 -152 3 -156 7 -4 4 -15 2 -25 -4 -14 -9 -22 -9 -33 1 -11 8
-17 9 -22 1z"/>
<path d="M4580 8560 c0 -58 -3 -71 -19 -80 -13 -7 -20 -7 -23 1 -2 5 -11 7
-21 4 -9 -4 -14 -12 -10 -19 4 -6 1 -6 -9 2 -9 7 -19 27 -23 45 -6 29 -7 30
-17 11 -5 -11 -29 -28 -54 -37 l-44 -16 0 24 c0 30 -9 31 -54 4 -41 -24 -93
-22 -117 4 -22 23 -36 22 -44 -4 -8 -25 -51 -23 -77 4 -40 39 -59 15 -53 -68
13 -182 18 -225 25 -225 9 0 20 103 20 198 0 83 14 91 16 9 2 -102 16 -219 25
-210 5 5 12 62 16 126 3 64 10 114 15 111 5 -3 9 -27 8 -52 -1 -58 9 -174 15
-181 9 -8 18 8 20 36 1 16 3 61 3 101 2 81 23 94 23 14 -1 -66 9 -145 19 -156
5 -4 12 14 15 40 4 27 10 53 13 58 8 15 22 -18 22 -56 0 -27 4 -38 15 -38 11
0 15 12 15 49 0 88 20 71 33 -28 1 -8 8 -16 15 -19 8 -2 12 11 13 45 1 26 1
52 0 57 -1 5 5 4 13 -3 8 -7 16 -31 18 -54 4 -57 28 -62 28 -5 0 50 13 80 24
53 3 -9 6 -31 6 -48 0 -37 14 -65 24 -49 4 6 8 52 9 101 1 58 6 91 13 91 6 0
11 -20 11 -47 0 -61 13 -143 23 -143 9 0 21 135 15 178 -4 24 -1 32 11 32 12
0 15 -12 15 -52 0 -83 10 -168 20 -168 5 0 9 21 10 48 1 26 4 58 8 72 4 14 4
42 0 63 -5 32 -4 37 10 35 12 -3 16 -16 16 -58 1 -116 5 -160 15 -160 6 0 10
20 10 45 0 24 5 55 11 68 8 17 8 30 1 43 -7 13 -6 28 2 49 12 28 13 22 19 -68
3 -55 8 -101 11 -105 13 -12 18 10 21 97 3 92 9 116 26 106 12 -8 11 -2 -5 31
-8 15 -12 32 -9 37 3 6 1 7 -5 3 -7 -4 -12 -2 -12 3 0 19 -17 12 -23 -9 -4
-16 -12 -20 -39 -18 -45 4 -57 23 -58 91 0 31 -4 57 -10 57 -6 0 -10 -30 -10
-70z"/>
<path d="M3909 8609 c-1 -8 0 -30 1 -50 1 -28 -4 -41 -22 -53 -12 -9 -19 -16
-14 -16 5 0 3 -6 -3 -13 -6 -8 -7 -18 -3 -22 4 -5 1 -5 -6 -1 -9 6 -10 11 -3
20 15 17 2 28 -14 12 -9 -9 -13 -51 -14 -139 -2 -108 0 -127 14 -127 10 0 15
10 15 31 0 21 -4 28 -12 23 -7 -4 -4 3 7 16 13 15 15 21 5 16 -8 -4 -6 0 4 8
26 21 36 6 36 -51 0 -50 16 -65 27 -26 13 50 3 366 -12 381 -3 3 -5 -1 -6 -9z"/>
<path d="M15065 4578 c-4 -35 -7 -128 -8 -208 l-2 -145 30 0 30 0 -3 170 c-3
187 -7 218 -27 235 -11 9 -15 -1 -20 -52z"/>
<path d="M14878 4437 c-6 -12 -20 -28 -31 -37 -19 -16 -28 -57 -31 -145 -1
-38 0 -40 34 -45 19 -3 53 -3 75 0 l40 5 2 95 c2 137 -2 148 -43 148 -25 0
-38 -6 -46 -21z"/>
</g>
</svg>
